<svg width="27" height="27" fill="none" xmlns="http://www.w3.org/2000/svg"><path d="M13.5.422C6.275.422.422 6.276.422 13.5c0 7.224 5.854 13.078 13.078 13.078 7.225 0 13.078-5.854 13.078-13.078C26.578 6.276 20.724.422 13.5.422zm6.424 8.96l-2.147 10.115c-.159.717-.586.89-1.181.553l-3.27-2.41-1.577 1.519c-.174.174-.321.322-.659.322l.232-3.328 6.06-5.474c.263-.232-.059-.364-.407-.132L9.486 15.26 6.26 14.254c-.701-.222-.717-.702.148-1.04l12.609-4.862c.585-.21 1.097.143.907 1.029z" fill="#FDFFFF"/></svg>