<svg width="27" height="28" fill="none" xmlns="http://www.w3.org/2000/svg"><g clip-path="url(#clip0)"><path d="M23.79 21.204c-1.211 1.041-2.965 1.788-5.264 2.24a26.203 26.203 0 01-7.105.398l-4.632 3.38v-4.225c-1.526-.461-2.719-1.059-3.578-1.793-1.018-.87-1.807-2.122-2.369-3.752a15.238 15.238 0 010-9.988C1.404 5.834 2.197 4.58 3.224 3.7c1.026-.88 2.495-1.554 4.408-2.024A24.52 24.52 0 0113.5.972c2 0 3.956.235 5.868.704 1.913.47 3.382 1.144 4.408 2.024 1.027.879 1.82 2.134 2.382 3.764a15.24 15.24 0 010 9.988c-.562 1.63-1.351 2.881-2.369 3.752zm-6.974-6.274l1.71.281c-.14-2.049-.951-3.799-2.434-5.25-1.482-1.451-3.276-2.245-5.381-2.382L11 9.244a6.614 6.614 0 013.895 1.87c1.088 1.058 1.728 2.33 1.92 3.816zm-5.526-3.97l.315 1.844c.702.341 1.22.845 1.553 1.51l1.895.308a4.651 4.651 0 00-1.343-2.343 5.163 5.163 0 00-2.42-1.319zm-2.816 1.51v-1.638c0-.29-.11-.58-.33-.87-.219-.291-.451-.5-.697-.628-.245-.128-.43-.141-.552-.039L5.685 10.5c-.685.666-.786 1.703-.303 3.112.482 1.408 1.403 2.774 2.763 4.097 1.36 1.323 2.763 2.22 4.21 2.69 1.448.469 2.505.37 3.171-.295l1.237-1.204c.123-.102.119-.277-.013-.525s-.346-.474-.645-.679c-.298-.204-.596-.307-.895-.307h-1.684l-.973.82c-.772-.205-1.733-.867-2.882-1.985-1.15-1.118-1.829-2.062-2.04-2.83l.843-.922zm1.684-8.194l.263 1.664a9.957 9.957 0 014.869 1.345 9.86 9.86 0 013.552 3.457 9.507 9.507 0 011.395 4.725l1.71.282c0-1.554-.311-3.039-.934-4.456-.623-1.417-1.46-2.638-2.513-3.662-1.053-1.025-2.307-1.84-3.763-2.446a11.799 11.799 0 00-4.58-.91z" fill="#FDFFFF"/></g><defs><clipPath id="clip0"><path fill="#fff" transform="translate(0 .972)" d="M0 0h27v26.25H0z"/></clipPath></defs></svg>