<svg width="35" height="35" fill="none" xmlns="http://www.w3.org/2000/svg"><path d="M17.5.547C8.134.547.547 8.135.547 17.5c0 9.365 7.588 16.953 16.953 16.953 9.366 0 16.953-7.588 16.953-16.953C34.453 8.135 26.865.547 17.5.547zm8.327 11.614l-2.783 13.112c-.205.93-.759 1.155-1.531.718l-4.238-3.124-2.044 1.969c-.226.225-.417.417-.855.417l.301-4.314 7.854-7.097c.343-.3-.075-.47-.527-.17l-9.707 6.11-4.184-1.305c-.908-.287-.93-.91.192-1.347l16.345-6.303c.759-.273 1.422.185 1.176 1.333v.001z" fill="#DCDCDC" opacity=".8"/></svg>