<svg width="36" height="35" fill="none" xmlns="http://www.w3.org/2000/svg"><path d="M31.72 26.976c-1.615 1.388-3.954 2.384-7.018 2.987-3.065.604-6.223.78-9.474.53L9.053 35v-5.634c-2.035-.615-3.626-1.412-4.772-2.39-1.357-1.161-2.41-2.829-3.158-5.003a20.319 20.319 0 010-13.317C1.87 6.482 2.93 4.81 4.298 3.636 5.667 2.465 7.626 1.566 10.175.94A32.695 32.695 0 0118 0c2.667 0 5.275.313 7.825.939 2.55.626 4.508 1.525 5.877 2.698 1.368 1.172 2.427 2.845 3.175 5.02a20.32 20.32 0 010 13.316c-.748 2.174-1.801 3.842-3.158 5.003zm-9.3-8.366l2.28.375c-.186-2.731-1.268-5.065-3.245-7-1.976-1.935-4.368-2.993-7.175-3.175l.386 2.22c2.011.25 3.742 1.08 5.193 2.492 1.45 1.411 2.304 3.107 2.561 5.088zm-7.368-5.293l.42 2.459c.936.455 1.626 1.126 2.07 2.014l2.527.41a6.202 6.202 0 00-1.79-3.124 6.884 6.884 0 00-3.227-1.759zm-3.755 2.015v-2.186c0-.387-.146-.774-.438-1.16-.293-.388-.603-.667-.93-.837-.328-.171-.573-.188-.737-.051l-1.614 1.604c-.912.888-1.047 2.271-.404 4.15.644 1.877 1.872 3.698 3.685 5.463 1.813 1.764 3.684 2.959 5.614 3.585 1.93.626 3.339.495 4.228-.393l1.649-1.605c.164-.136.158-.37-.018-.7-.175-.33-.462-.631-.86-.904-.397-.274-.795-.41-1.192-.41h-2.246l-1.298 1.092c-1.03-.273-2.31-1.155-3.842-2.646-1.532-1.49-2.439-2.749-2.72-3.773l1.123-1.23zm2.246-10.927l.35 2.22c2.34.045 4.504.642 6.492 1.792 1.988 1.15 3.567 2.686 4.737 4.61a12.677 12.677 0 011.86 6.3l2.28.375c0-2.071-.415-4.052-1.246-5.941-.83-1.89-1.947-3.517-3.35-4.883-1.404-1.366-3.076-2.453-5.018-3.26a15.732 15.732 0 00-6.105-1.213z" fill="#DCDCDC" opacity=".8"/></svg>