<svg width="33" height="32" fill="none" xmlns="http://www.w3.org/2000/svg"><path d="M16.67 12.136a4.174 4.174 0 00-4.165 4.165 4.174 4.174 0 004.165 4.166 4.174 4.174 0 004.166-4.166 4.174 4.174 0 00-4.166-4.165zM29.164 16.3c0-1.725.016-3.434-.081-5.156-.097-2-.553-3.775-2.016-5.238-1.465-1.465-3.237-1.918-5.237-2.015-1.725-.097-3.435-.081-5.157-.081-1.725 0-3.434-.016-5.156.08-2 .098-3.775.554-5.237 2.016-1.466 1.466-1.92 3.238-2.016 5.238-.097 1.725-.081 3.434-.081 5.156 0 1.722-.016 3.434.081 5.156.097 2 .553 3.775 2.016 5.238 1.465 1.465 3.237 1.919 5.237 2.015 1.725.097 3.434.082 5.156.082 1.725 0 3.435.015 5.157-.082 2-.096 3.775-.553 5.237-2.015 1.466-1.466 1.919-3.238 2.016-5.238.1-1.722.081-3.43.081-5.156zM16.67 22.71a6.4 6.4 0 01-6.41-6.41 6.4 6.4 0 016.41-6.41 6.4 6.4 0 016.41 6.41 6.4 6.4 0 01-6.41 6.41zm6.672-11.585a1.495 1.495 0 01-1.497-1.497c0-.828.669-1.497 1.497-1.497a1.495 1.495 0 011.384 2.07 1.496 1.496 0 01-1.384.924z" fill="#FDFFFF"/></svg>