<svg width="42" height="42" fill="none" xmlns="http://www.w3.org/2000/svg"><path d="M21 15.533A5.479 5.479 0 0015.533 21 5.479 5.479 0 0021 26.467 5.479 5.479 0 0026.467 21 5.479 5.479 0 0021 15.533zM37.398 21c0-2.264.02-4.508-.107-6.768-.127-2.625-.726-4.954-2.645-6.874-1.924-1.923-4.25-2.518-6.874-2.645-2.264-.127-4.508-.107-6.768-.107-2.264 0-4.508-.02-6.768.107-2.625.127-4.954.726-6.874 2.645-1.923 1.924-2.518 4.25-2.645 6.874C4.59 16.497 4.61 18.74 4.61 21s-.02 4.508.107 6.768c.127 2.625.726 4.954 2.645 6.874 1.924 1.923 4.25 2.518 6.874 2.645 2.264.127 4.508.107 6.768.107 2.264 0 4.508.02 6.768-.107 2.625-.127 4.954-.726 6.874-2.645 1.923-1.924 2.518-4.25 2.645-6.874.132-2.26.107-4.504.107-6.768zM21 29.412A8.4 8.4 0 0112.588 21 8.4 8.4 0 0121 12.588 8.4 8.4 0 0129.412 21 8.4 8.4 0 0121 29.412zm8.757-15.204a1.962 1.962 0 01-1.965-1.965c0-1.087.878-1.965 1.965-1.965a1.962 1.962 0 011.816 2.717 1.962 1.962 0 01-1.816 1.213z" fill="url(#paint0_linear)"/><defs><linearGradient id="paint0_linear" x1="28.5" y1="4.5" x2="8" y2="39" gradientUnits="userSpaceOnUse"><stop stop-color="#BC22F2"/><stop offset=".453" stop-color="#ED4395"/><stop offset="1" stop-color="#FFAD33"/></linearGradient></defs></svg>