<svg width="76" height="51" fill="none" xmlns="http://www.w3.org/2000/svg"><path opacity=".7" d="M74.41 21.69a2.13 2.13 0 01.34-.45 1.17 1.17 0 000-1.48l-.18-.21.21-.24A.77.77 0 0075 19c0-.2-.35-.5-.58-.5a1.4 1.4 0 00-.75.46c0 .05-.1.1-.13.1a3.428 3.428 0 01-.6-.79 1.284 1.284 0 00-.21-.29c-.18-.21-.22-.23-.56-.25h-.07a1.15 1.15 0 01-.85-.43L71 17l-.5.11-.49.11-.26-.22a.74.74 0 00-.29-.23s-.17-.12-.28-.25c-.11-.13-.2-.25-.56-.25a1.1 1.1 0 01-1-.49c-.32-.42-.43-.5-.66-.5-.23 0-.45.23-.45.67a1.66 1.66 0 01-.09.5l-.08.14-.11-.15a4.21 4.21 0 00-.59-.5 4.296 4.296 0 01-.63-.57 2.18 2.18 0 01-.39-1c0-.1-.08-.2-.27-.34a1 1 0 01-.41-.53c-.17-.41-.29-.45-.72-.24l-.62.28a3.84 3.84 0 01-.6.2c-.284.07-.564.153-.84.25a1.48 1.48 0 01-1.3 0 .59.59 0 00-.71 0 .25.25 0 01-.11.09 1.21 1.21 0 01-.21-.4 1.941 1.941 0 00-.39-.6c-.2-.18-.23-.19-.53-.15-.3.04-.47.06-.66.06a.88.88 0 00-.53.15.46.46 0 01-.22.12 4.994 4.994 0 01-.71-.87c-.23-.33-.27-.62-.11-.83.16-.21.16-.53-.11-1.12a4.36 4.36 0 01-.24-.61.32.32 0 01.12-.19.47.47 0 00.12-.23.81.81 0 00-.44-.43 1.57 1.57 0 01-.31.02c-.28-.14-.37-.28-.43-.68s-.23-.43-.63-.29A1.36 1.36 0 0152.55 8a2.1 2.1 0 00-1.3-.3c-.34.09-.41 0-.33-.35a.74.74 0 000-.53c-.05-.14-.06-.26 0-.28.06-.02.06-.36-.06-.54a2.198 2.198 0 00-.34-.37l-.23-.2.53-.26c.59-.3.69-.41.7-.68.01-.27-.09-.3-.49-.72a3.24 3.24 0 01-.82-1.34c0-.1-.06-.29-.08-.43a3.85 3.85 0 00-.86-1.34 2.65 2.65 0 00-1.15-.48.62.62 0 00-.32.13c-.2.16-.24.15-.75-.09s-.88-.3-1.08 0c-.098.126-.185.26-.26.4a.75.75 0 01-.26.29 2.91 2.91 0 01-.77.07c-.54 0-.64 0-.73-.12a1.34 1.34 0 00-.33-.22c-.23-.11-.25-.11-.39 0a1.85 1.85 0 00-.52 1c0 .26-.07.29-.35.45-.8.43-1.08.48-1.42.2-.34-.28-.27-.2-.71-.2a1.58 1.58 0 01-.54-.09 1 1 0 00-.41-.08c-.33 0-.35 0-.62.26l-.28.28-.17-.17c-.2-.2-.46-.22-.84-.06a1.5 1.5 0 00-.78.73c-.22.35-.76 1.11-1.15 1.61-.18.23-.18.25-.18.9a3.4 3.4 0 00.14 1.13c.27.85.31 1 .28 1.06a.48.48 0 01-.27 0c-.2 0-.23 0-.33-.24a2.36 2.36 0 00-.86-.86 3.42 3.42 0 00-.95-.15c-.65 0-.8-.06-.94-.17-.14-.11-.29-.16-.52 0a.43.43 0 01-.39.1c-.25 0-.36 0-.57.47-.11.24-.16.28-.25.23-.09-.05-.2-.3-.3-.81-.1-.51-.23-.78-.43-.87-.2-.09-.21-.05-.49.09-.165.077-.335.14-.51.19a1.28 1.28 0 00-.66.64c-.15.25-.2.25-.25 0-.05-.25-.09-.27-.15-.4-.15-.29-.37-.34-1-.22l-.42.09-.14-.28c-.2-.46-.21-.48-.37-.5-.16-.02-.22.07-.5.4a3.254 3.254 0 01-.4.4s-.08-.07-.12-.17c-.14-.28-.26-.39-.4-.39s-.25.1-.33.54c-.08.44-.12.45-.25.3-.13-.15-.06-.12 0-.21.25-.29.15-.63-.19-.63a1 1 0 00-.43.14l-.23.13-.35-.15a1.89 1.89 0 00-.56-.14c-.21 0-.21 0-.29-.39-.08-.39-.18-.39-.86-.41-.68-.02-.63 0-.87-.2a1.09 1.09 0 00-1-.15c-.1.12-.1.1-.1-.04s-.25-.27-1-.42a7.586 7.586 0 01-.77-.19 1.59 1.59 0 00-.6 0c-1.72.14-1.92.12-2.51-.2L13.81 3l-.39.16c-.168.07-.332.15-.49.24a3 3 0 01-1.27 0 .28.28 0 00-.29 0c-.09.05-.44.19-.76.32-.69.27-.75.31-1 .79a3.09 3.09 0 01-.61.88.53.53 0 01-.46.2.48.48 0 01-.44-.19.54.54 0 00-.82 0l-.17.18v1.1c0 1.24 0 1.14.48 1.86.136.18.229.388.27.61a2.07 2.07 0 00.87 1.37l.15.11h-.23c-.26 0-.41 0-.41.23.07.245.171.48.3.7.078.153.148.31.21.47l-.15.93c-.08.48-.15.59-.3.5-.15-.09-.49-.07-.77.23a2.063 2.063 0 00-.26.34 3.907 3.907 0 01-.68.71c-.45.463-.848.973-1.19 1.52-.42.56-.79 1.07-.82 1.12a1.918 1.918 0 00-.19.28.809.809 0 01-.2.23.161.161 0 00-.08.11 4.994 4.994 0 01-.46.68c-.19.243-.36.5-.51.77a3.31 3.31 0 000 1.62c.01.504.202.987.54 1.36.15.15.17.45 0 .39h-.14a1.579 1.579 0 01-.38-.31c-.55-.51-.78-.4-1 .5a5.47 5.47 0 01-.73 1.68c-.119.19-.225.387-.32.59A4.88 4.88 0 001 26.51s.12.14.25.22c.13.08.29.2.45.73.16.53.18.47.55.54.37.07.31.07.33.23.02.16.19.32.49.38l.45.1c.21.06.23.09.2.22a.18.18 0 00.1.24 1.81 1.81 0 001 .13c.24 0 .31-.13.45-.55 0-.05 0-.1.07-.1.144.116.272.25.38.4.144.176.313.331.5.46.21.1.23.09.59 0l.38-.14.17.17a.7.7 0 00.69.2c.78-.12.91-.12 1.15 0a.9.9 0 00.67.11c.288-.022.572-.072.85-.15.157-.058.323-.088.49-.09a.46.46 0 01.1.2A3.12 3.12 0 0012.62 31c.51.13 1.13-.35 1.31-1 0-.13.07-.14.48-.14.25 0 .85 0 1.35-.1a3 3 0 001.42-.35 8.748 8.748 0 001.22-.79c.69-.52.91-.76 1-1.13.023-.113.056-.223.1-.33l.05-.15.36.16c.35.15.37.15.53.05a.339.339 0 00.15-.24c0-.12 0-.13.28-.12a.46.46 0 00.42-.1l.13-.13.18.18c.24.27.4.25.68-.1l.23-.28h.37c.29 0 .38 0 .44-.05a.18.18 0 01.31 0 .5.5 0 00.36.09c.24 0 .35 0 .7.3.78.54 1 .73 1.07.92.07.19.16.27.37.27s.16 0 .13.1.13.31.41.4c.28.09.26.08.63-.12s.4-.21.62-.12c.22.09.26.14.3.29.04.15.2.37.61.67.41.3.37.23.57.2h.23l.07.3c.063.218.161.424.29.61.077.103.144.214.2.33a1.27 1.27 0 01-.27.23c-.21.16-.27.24-.27.37a.44.44 0 00.06.24c.032.31-.017.624-.14.91 0 .15 0 .2.05.3.05.1.16.13.4.09h.29v.21c-.07.43.19.61.57.41.38-.2.4-.16.28.11l-.14.37c0 .06-.08.2-.11.29a.82.82 0 000 .66.52.52 0 00.28.07c.13 0 .2 0 .2.09.028.134.079.263.15.38.071.128.122.266.15.41 0 .2.22.36.48.36a.47.47 0 01.43.22c.1.12.21.22.25.22.04 0 .07.16-.08.47-.15.31-.11.31-.06.4.05.09.1.41 0 .46-.1.05.07.78.26.78a.46.46 0 01.29.27h-.25c-.14 0-.27 0-.42-.3-.15-.3-.27-.35-.51-.28-.24.07-.17.11-.22.26a1.297 1.297 0 01-.11.28s-.18-.07-.34-.2a3.907 3.907 0 00-.41-.3.89.89 0 00-.73.14l-.17.12v-.22c0-.38-.3-.58-.58-.39a1 1 0 01-.3.13c-.39.1-.53.37-.61 1.19-.05.53 0 .74.3.9l.21.13-.33.33c-.32.33-.4.5-.26.64s0 .18-.31.3-.45.21-.42.59c.03.38 0 .37-.49.49s-.55.2-.55.62c0 .57 0 .63-.34.63-.59 0-.7.21-.42.83.084.172.135.359.15.55a.67.67 0 00.08.31 4.16 4.16 0 001.67.79c.2 0 .4-.19.51-.48.11-.29.09-.2.3-.2a7.65 7.65 0 001.16-.31c.36-.139.73-.242 1.11-.31.21 0 .41.18.62.54.07.15.15.2.27.2.12 0 .21-.06.38-.71.17-.65.15-.76-.05-.84a.55.55 0 01-.28-.55v-.16l.1.14c.21.31.66 0 .62-.41 0-.2 0-.23.23-.35.23-.12.49-.31.78-.52.182-.146.376-.277.58-.39.11 0 .49-.53.68-.91.26-.57.24-.71-.14-1-.159-.12-.31-.25-.45-.39-.11-.13-.1-.13.09 0 .145.115.307.206.48.27.148.065.279.164.38.29.2.28.4.24.55-.1.13-.27.273-.534.43-.79l.31-.51v-.49c0-.47 0-.48.12-.48.154-.022.305-.063.45-.12a.76.76 0 01.56-.07 3.5 3.5 0 001.39-.1c.08-.07.12-.05.24.07a.37.37 0 00.57 0 .681.681 0 01.54-.13.74.74 0 00.48-.1c.14-.13.34-.06.71.23.37.29.34.3.23.46-.11.16-.1.1-.32 0a3.005 3.005 0 00-.63-.13 5.392 5.392 0 01-.74-.14c-.43-.11-.4-.11-.48.05a.17.17 0 000 .23 3.35 3.35 0 001.1.56l.37.12-.36.11a1.37 1.37 0 00-.47.22c-.27.27-.06.45.62.56.195.018.386.062.57.13a.249.249 0 00.16 0 .38.38 0 01.21.13 4.1 4.1 0 001.27.65 2.36 2.36 0 001.57 0c.216-.067.437-.12.66-.16.31 0 .34 0 .78.27.76.51 1.18.57 1.51.19.14-.16.16-.17.2-.07a1 1 0 01-.05.7 5.69 5.69 0 01-2.22 1.37 4.611 4.611 0 00-1.51.87 1.52 1.52 0 00-.41.84c-.06.33-.06.38 0 .52s.38.26 1.08.18c.7-.08.82-.05 1.11.47.09.166.205.318.34.45a1.4 1.4 0 001 0c.17-.07.22-.07.34 0 .12.07.14.13.09.43-.05.3 0 .67 0 1.09 0 .82 0 .86-.35 1.3a.67.67 0 00-.11.82c.133.172.28.333.44.48.38.38.36.37 1.13.2a7.05 7.05 0 01.82-.09h.65c.21 0 .48-.3.73-.79a2 2 0 011.51-1.24 10.25 10.25 0 001.67-.51c1-.48 1.52-.77 1.52-.92.021-.086.052-.17.09-.25.09-.18.11-.2.32-.15.17.036.338.086.5.15a8.58 8.58 0 001.94.26h.65l.22-.25a.84.84 0 00.23-.4 1.759 1.759 0 000-.58c0-.34 0-.39.1-.51a.3.3 0 01.34-.1.32.32 0 00.28-.06c.12-.13.12-.13 0-.43a1.44 1.44 0 00-.82-.64 2.93 2.93 0 00-1.18.33c-.26.13-.35.15-.43.1a2.725 2.725 0 00-.36-.24c-.25-.16-.26-.16-.51-.06-.172.074-.33.175-.47.3a1.54 1.54 0 01-.76.42c-.24.07-.26.07-1.2-.18a.77.77 0 01-.53-.55c.01-.144.04-.285.09-.42a.89.89 0 00-.5-1.29 2.897 2.897 0 01-.62-.42 3.479 3.479 0 00-.68-.56 1 1 0 010-.45c.013-.18-.01-.36-.07-.53 0 0 .06-.07.36-.09a1.13 1.13 0 00.81-.32 2.24 2.24 0 011-.47c.17 0 .42-.28.46-.53.04-.25.06-.21.15-.16a.749.749 0 00.33.06.3.3 0 00.33-.18c.05-.1.14-.19.19-.19.188-.077.363-.182.52-.31a3.13 3.13 0 012.09-.81c.47 0 .54 0 .65-.13a1.24 1.24 0 01.3-.23c.434-.22.881-.41 1.34-.57a.8.8 0 01.3.16.54.54 0 00.6.09c.15-.06.24-.21.43-.76.1-.28.11-.28.42-.32.88-.09 1.07-.15 1.3-.42.37-.43.49-.51.88-.59a5.221 5.221 0 011.67 0 .708.708 0 001-.62 2.56 2.56 0 01.16-.51c.08-.16.09-.22 0-.34a4.22 4.22 0 01.14-1.82 2.87 2.87 0 01.73-.16c.94-.12 1.19-.31 1.45-1.1s.2-.64.7-.52c.467.094.945.121 1.42.08 1 0 1 0 1.28-.18a1.16 1.16 0 00.53-1 .72.72 0 01.16-.47c.192-.3.306-.644.33-1a.25.25 0 00-.16-.24c-.13-.06-.15-.1-.12-.24a1.24 1.24 0 000-1c-.32-.86-.35-.92-.5-1-.15-.08-.14-.06-.11-.26.1-.54.1-.54.42-.56.32-.02.88-.36.88-.72s-.13-.39-.4-.29c-.27.1-.25.07-.35 0-.1-.07-.55-.61-.48-.64.123-.054.25-.097.38-.13.13.15.26.03.54-.46zm-2.13-.9l-1 .58v1.17c-.004.347.075.69.23 1a4.09 4.09 0 00-.26.89 2.16 2.16 0 00.6 2c.027.059.05.119.07.18a2.39 2.39 0 000 1.1 3.11 3.11 0 00-.15.39 3.54 3.54 0 01-.93 0 2.26 2.26 0 00-2.94 1.61 3 3 0 00-1.66.59 3.75 3.75 0 00-.9 2.76 6.855 6.855 0 00-1.2.12 3.07 3.07 0 00-1.73 1h-.25a2.263 2.263 0 00-1.65.82c-.764.15-1.5.42-2.18.8a2.06 2.06 0 00-.21.13A5.15 5.15 0 0055 37a.18.18 0 01-.07 0h-.1l-.92.43c-.37.18-.68.466-.89.82a7.822 7.822 0 00-.77.45c-.09 0-.66.57-.76.54-.77.82-.51 1.84-.55 3.56.14.43.1.63.28.74.105.084.206.174.3.27.136.133.283.253.44.36v.33a2.6 2.6 0 001.05 2c-.26.08-.67.21-1.05.29a3.84 3.84 0 00-2.38 1.51v-1.04a2.33 2.33 0 00-2.13-2.77A6.1 6.1 0 0049.38 43c.15-1.2-.21-3.48-1.69-3.92-.56-.16-3.89-1.26-3.89-1.26a2.64 2.64 0 00-1-1.51 2.5 2.5 0 00-2.62-.57 2.67 2.67 0 00-.55.06 2 2 0 00-1.32.08H38a2.82 2.82 0 00-1.65.19 2.05 2.05 0 00-1.47.89 2.11 2.11 0 00-.3-1.45l-.64-1h-.34a1.494 1.494 0 00-.3-.18 1.781 1.781 0 00-.18-.43 2 2 0 00-.54-2.13l.24-1.42-.57.09a2.65 2.65 0 00-.56-1.3l-.47-1.95-1.31.17a2.6 2.6 0 00-2.64-1.08 6.941 6.941 0 00-1.31-1.06 3.23 3.23 0 00-1.45-.64 2.251 2.251 0 00-.92-.21 2.32 2.32 0 00-.71.13l-.88-.11-.55-.58-1.14 1.11c-.133.02-.264.053-.39.1l-1.56-.7-.76 2.17c0 .1-.08.22-.11.32l-.32.25a7.557 7.557 0 01-.9.59l-.16.08a5.597 5.597 0 01-.59.07c-.51.06-1 .09-1.13.09a2.72 2.72 0 00-1.66.46 2.054 2.054 0 00-.44-.39 2.491 2.491 0 00-2.15-.16 1.99 1.99 0 01-.3.06 3 3 0 00-1.53-.18l-.63-.61-.83.29a2.11 2.11 0 00-1.44-.7 2 2 0 00-1 .23l-.32-.1a1.87 1.87 0 00-.63-.48 2.942 2.942 0 00-.3-.55v-.07c.16-.27.32-.54.45-.81l1 .35.88-1.4a2.31 2.31 0 00-.29-2.73 3.336 3.336 0 01-.08-.4 5.003 5.003 0 01-.07-.55l.22-.31c.181-.233.348-.477.5-.73.126-.134.236-.282.33-.44l.05-.07.85-1.2c.32-.44.79-1.09.87-1.18.294-.238.565-.502.81-.79.201-.03.397-.091.58-.18a2.46 2.46 0 001.3-1.95v-.07a2.28 2.28 0 00.17-1.47 4.301 4.301 0 00-.44-1.14c-.05-.1-.1-.2-.13-.28-.1-.23 0-1.22-.08-1.28l-.17-.12-.1-.09a3.22 3.22 0 00-.51-1.36 2.68 2.68 0 001.11-.69c.348-.34.64-.731.87-1.16h.08l.19-.08.18-.07a3.91 3.91 0 002.07-.22 6.56 6.56 0 002.92.13h.06c.266.078.537.141.81.19h.05a2.1 2.1 0 001.73.54c.31.169.65.274 1 .31a2 2 0 001.63.82l.43.18a2.09 2.09 0 002.11.7 2 2 0 00.64-.28l.11.24 1.25-.26c.315.34.733.569 1.19.65A2 2 0 0029 8.28a2 2 0 00.64.55l.12.06a2.1 2.1 0 002.49-.53c.304.05.612.08.92.09h.2a2.2 2.2 0 002.04 1.25 2.13 2.13 0 001.94-1c.55-.85.34-1.53 0-2.75a1.399 1.399 0 01-.05-.51l.56-.78.57.57L39.64 4h.38a3.2 3.2 0 003.32-.25c.402-.2.746-.5 1-.87a4.1 4.1 0 002-.26c.2-.097.385-.222.55-.37a2.24 2.24 0 001.19.06l.07.12.06.33c.09.395.242.773.45 1.12l-2 1 2.23 1.92.06.33a2.16 2.16 0 002.55 2.48l.15.07c.45.244.949.384 1.46.41.094.116.201.22.32.31.077.292.18.577.31.85a2.68 2.68 0 00.47 2.4c.61.87 1.15 1.63 2.14 1.72.341.028.684-.027 1-.16a2 2 0 001.72 1c.2-.001.399-.032.59-.09a3.8 3.8 0 002.18-.2l.6-.18.47-.13c.134.358.32.695.55 1 .294.356.63.675 1 .95l.28.22 1.9 2.46 1.14-2.06c.092.026.186.046.28.06.107.096.225.18.35.25l.92.95 1.1-.25a2.61 2.61 0 001 .41 3.44 3.44 0 001.07 1.11l-.22.08z" fill="#fff"/></svg>