<svg width="60" height="59" fill="none" xmlns="http://www.w3.org/2000/svg"><path opacity=".7" d="M25.45 53.704h3.476l1.076-3.276 1.075 3.276h3.476l-2.812 2.024L32.813 59l-2.812-2.023L27.186 59l1.076-3.272-2.811-2.024zm-5.266 1.22l-2.813-2.025-2.816 2.024 1.075-3.272-2.813-2.024h3.477l1.075-3.276 1.076 3.276h3.476l-2.816 2.024 1.079 3.272zm-8.699-8.607L8.67 44.293l-2.813 2.024 1.074-3.273-2.816-2.024h3.478l1.076-3.275 1.074 3.275h3.478l-2.813 2.024 1.078 3.273zM0 28.487h3.478l1.076-3.273 1.073 3.273h3.479L6.293 30.51l1.075 3.272-2.816-2.023-2.813 2.023 1.07-3.273L0 28.486zm11.485-7.236L8.67 19.227 5.856 21.25l1.074-3.272-2.816-2.024h3.478l1.076-3.275 1.074 3.275h3.478l-2.813 2.024 1.078 3.272zm8.699-8.607l-2.813-2.023-2.816 2.023 1.075-3.272-2.813-2.024h3.477l1.075-3.276 1.076 3.276h3.476l-2.813 2.024 1.076 3.272zm12.634-4.077l-2.816-2.02-2.813 2.022 1.075-3.273-2.816-2.024h3.48L30 0l1.076 3.272h3.476L31.74 5.296l1.077 3.271zM54.145 21.25l-2.816-2.022-2.813 2.022 1.076-3.272-2.816-2.024h3.478l1.074-3.275 1.075 3.275h3.478l-2.813 2.024 1.077 3.272zm0 25.067l-2.816-2.024-2.813 2.024 1.076-3.273-2.816-2.024h3.478l1.074-3.275 1.075 3.275h3.478l-2.813 2.024 1.077 3.273zM44.371 9.372l1.073 3.272-2.813-2.023-2.816 2.023 1.075-3.272-2.813-2.024h3.477l1.075-3.276 1.076 3.276h3.476l-2.81 2.024zm-2.816 40.256l1.076-3.275 1.075 3.275h3.477l-2.813 2.024 1.075 3.273L42.63 52.9l-2.816 2.024 1.076-3.273-2.813-2.024h3.48zm16.706-15.845l-2.813-2.023-2.816 2.023 1.075-3.273-2.813-2.024h3.479l1.074-3.272 1.072 3.273H60l-2.816 2.024 1.077 3.272z" fill="#fff"/></svg>