<svg width="51" height="52" fill="none" xmlns="http://www.w3.org/2000/svg"><g opacity=".7" clip-path="url(#clip0)"><path d="M49.908 6.248a.986.986 0 00-.934.274l-4.138 4.244h-1.983l-2.184-2.303V6.417l4.078-4.212c.242-.25.34-.608.26-.949a1.009 1.009 0 00-.652-.726A9.798 9.798 0 0041.168 0c-3.25 0-6.204 1.543-8.102 4.232a10.182 10.182 0 00-1.54 8.556l-7.352 7.48-12.248-12.49V5.325a1.02 1.02 0 00-.484-.87L4.385.144a.984.984 0 00-1.22.153L.344 3.17a1.03 1.03 0 00-.15 1.24l4.234 7.182c.18.306.505.492.855.493h2.409L19.94 24.579l-7.324 7.452c-2.901-.798-5.935-.24-8.41 1.57C1.564 35.53.05 38.535.05 41.843c0 1.11.175 2.2.52 3.243.11.334.383.585.72.665.337.08.69-.024.935-.274l4.137-4.243h1.994l2.273 2.312v2.03l-4.17 4.21a1.028 1.028 0 00-.27.95c.079.344.326.621.654.733a9.796 9.796 0 003.187.53c3.25 0 6.203-1.542 8.1-4.23a10.187 10.187 0 001.543-8.558l5.882-5.985 15.342 16.958.029.03a5.914 5.914 0 008.469 0c2.334-2.376 2.334-6.242 0-8.618l-.031-.03C43.77 36.343 38.098 31.05 32.672 25.982l5.91-6.014c.84.228 1.708.344 2.586.344 5.503 0 9.98-4.556 9.98-10.156 0-1.11-.175-2.2-.52-3.243a1.004 1.004 0 00-.72-.665zM8.811 10.353a.979.979 0 00-.706-.288l-2.257-.001-3.542-6.019 1.72-1.75L9.93 5.9v2.297c0 .27.105.527.292.718l12.54 12.79-1.41 1.437-12.54-12.79zm25.387 19.81l13.8 12.884c1.541 1.585 1.537 4.152-.015 5.731a3.944 3.944 0 01-5.633.014l-12.682-14.02 4.53-4.608zm-1.472-1.374l-4.412 4.488-1.347-1.49 4.292-4.367 1.467 1.37zm8.442-10.508a7.85 7.85 0 01-2.55-.423.987.987 0 00-1.025.244L17.838 38.205a1.028 1.028 0 00-.24 1.042 8.16 8.16 0 01-1.089 7.337c-1.518 2.15-3.88 3.384-6.48 3.384a8.02 8.02 0 01-.87-.048l3.17-3.2c.19-.191.296-.45.296-.722v-2.873c0-.27-.105-.527-.293-.718L9.476 39.5a.99.99 0 00-.705-.298H5.946a.99.99 0 00-.709.3l-3.145 3.226a8.359 8.359 0 01-.046-.885c0-2.646 1.211-5.05 3.324-6.594 2.119-1.548 4.747-1.953 7.21-1.108a.985.985 0 001.025-.244L33.36 13.794a1.03 1.03 0 00.24-1.042 8.155 8.155 0 011.087-7.335c1.519-2.152 3.88-3.386 6.48-3.386.302 0 .6.017.897.05L38.96 5.289c-.184.19-.287.446-.287.712v2.873c0 .264.1.516.28.706l2.757 2.907a.99.99 0 00.718.31h2.824c.266 0 .52-.107.708-.3l3.145-3.225c.032.293.047.588.047.885 0 4.48-3.582 8.125-7.984 8.125z" fill="#fff"/></g><defs><clipPath id="clip0"><path fill="#fff" d="M0 0h51v52H0z"/></clipPath></defs></svg>