<svg width="52" height="52" fill="none" xmlns="http://www.w3.org/2000/svg"><path opacity=".7" fill-rule="evenodd" clip-rule="evenodd" d="M49.508 2H29.626c-.343 0-.896.112-1.506.365-.61.252-1.08.564-1.322.806L2.143 27.825v.001a.493.493 0 000 .693v.001L23.48 49.856l.001.002a.492.492 0 00.693 0v-.002L48.83 25.202c.244-.243.556-.713.807-1.322.253-.61.364-1.162.364-1.506V2.492A.496.496 0 0049.508 2zm.006-2H29.626c-1.365 0-3.278.792-4.242 1.757L.726 26.414a2.493 2.493 0 000 3.517l21.343 21.343a2.492 2.492 0 003.517 0l24.657-24.658C51.211 25.65 52 23.74 52 22.374V2.486A2.496 2.496 0 0049.514 0zm-12.43 21.888a6.974 6.974 0 11.004-13.948 6.974 6.974 0 01-.005 13.948zm-1.903-2.38a4.974 4.974 0 103.81-9.189 4.974 4.974 0 00-3.81 9.19z" fill="#fff"/></svg>