<svg width="160" height="162" fill="none" xmlns="http://www.w3.org/2000/svg"><path fill="#D7E6F4" d="M0 0h160v12H0zm0 120h109v12H0zm0 30h160v12H0z"/><path d="M129.5 74.227h5.781c2.917-.026 5.222-.782 6.914-2.266 1.719-1.484 2.578-3.633 2.578-6.445 0-2.709-.716-4.805-2.148-6.29-1.406-1.51-3.568-2.265-6.484-2.265-2.552 0-4.649.742-6.289 2.227-1.641 1.458-2.461 3.372-2.461 5.742h-9.493c0-2.917.769-5.573 2.305-7.97 1.563-2.395 3.724-4.257 6.485-5.585 2.786-1.354 5.898-2.031 9.335-2.031 5.678 0 10.131 1.432 13.36 4.297 3.255 2.838 4.883 6.797 4.883 11.875 0 2.552-.821 4.96-2.461 7.226-1.615 2.24-3.711 3.932-6.289 5.078 3.125 1.068 5.494 2.748 7.109 5.04 1.641 2.291 2.461 5.025 2.461 8.203 0 5.104-1.758 9.166-5.274 12.187-3.489 3.021-8.085 4.531-13.789 4.531-5.468 0-9.947-1.458-13.437-4.375-3.49-2.916-5.234-6.797-5.234-11.64h9.492c0 2.5.833 4.53 2.5 6.093 1.692 1.563 3.958 2.344 6.797 2.344 2.942 0 5.26-.781 6.953-2.344 1.692-1.562 2.539-3.828 2.539-6.796 0-2.995-.886-5.3-2.656-6.915-1.771-1.614-4.401-2.421-7.891-2.421H129.5v-7.5z" fill="#373737"/><path d="M70.945 63.415H95.62L79.148 42.33h-8.203v21.084zm0 5.39v12.478a13.968 13.968 0 014.013-.588c7.396 0 13.468 5.759 13.977 13.027H97V68.805H70.945zm-27.728-3.474l2.293-8.026H5v8.026h38.217z" fill="#D7E6F4"/><path d="M65.555 84.327V34.665H5v17.25h47.657l-5.374 18.807H5v23h8.065c.509-7.268 6.581-13.027 13.977-13.027 7.395 0 13.467 5.759 13.977 13.027h19.963a13.987 13.987 0 014.573-9.395z" fill="#D7E6F4"/><path d="M27.042 103.335a8.625 8.625 0 100-17.25 8.625 8.625 0 000 17.25zm47.916 0a8.625 8.625 0 100-17.25 8.625 8.625 0 100 17.25z" fill="#D7E6F4"/></svg>