<svg width="160" height="162" fill="none" xmlns="http://www.w3.org/2000/svg"><path fill="#D7E6F4" d="M0 0h160v12H0zm0 120h109v12H0zm0 30h160v12H0z"/><path d="M150.633 86.727h7.07v7.617h-7.07V107h-9.492V94.344H116.57l-.273-5.781 24.531-38.438h9.805v36.602zm-24.375 0h14.883v-23.75l-.703 1.25-14.18 22.5z" fill="#373737"/><path d="M28.994 41.613l30.696-8.38-1.625-3.285C57 27.812 54.407 26.93 52.27 27.994L24.79 41.613h4.203zm40.226-8.137c-.381 0-.762.052-1.142.156l-7.212 1.971-22.023 6.01h35.893l-1.35-4.946a4.316 4.316 0 00-4.167-3.191zm10.02 11.163H15.333a4.33 4.33 0 00-4.177 3.19A4.476 4.476 0 0011 48.963v48.172a4.325 4.325 0 004.323 4.323h63.91a4.325 4.325 0 004.322-4.323V85.072H57.9a7.355 7.355 0 01-7.35-7.35v-9.616c0-1.988.796-3.795 2.085-5.118a7.275 7.275 0 015.257-2.223h25.663V48.962a4.312 4.312 0 00-4.314-4.323z" fill="#D7E6F4"/><path d="M86.59 64.899a4.32 4.32 0 00-2.913-1.133H57.9a4.325 4.325 0 00-4.323 4.323v9.624a4.325 4.325 0 004.323 4.324h25.777c.492 0 .96-.087 1.4-.234a4.18 4.18 0 001.514-.9A4.308 4.308 0 0088 77.714V68.09a4.308 4.308 0 00-1.41-3.19zm-19.662 8.863a2.162 2.162 0 01-2.162 2.161h-1.435a2.162 2.162 0 01-2.162-2.161v-1.436c0-.691.32-1.305.83-1.695.372-.285.83-.466 1.332-.466h1.435c1.193 0 2.162.968 2.162 2.161v1.436z" fill="#D7E6F4"/></svg>