<svg width="160" height="162" fill="none" xmlns="http://www.w3.org/2000/svg"><path fill="#D7E6F4" d="M0 0h160v12H0zm0 120h109v12H0zm0 30h160v12H0z"/><path d="M144.227 107h-9.454V61.336l-13.945 4.766v-8.008l22.188-8.164h1.211V107z" fill="#373737"/><g clip-path="url(#clip0)" fill="#D7E6F4"><path d="M28.655 90.175c-5.804 0-10.966-3.715-12.84-9.247l-.127-.417c-.442-1.465-.628-2.697-.628-3.93V51.865L6.266 81.221c-1.13 4.318 1.447 8.794 5.771 9.987l56.055 15.012c.7.181 1.4.268 2.088.268 3.61 0 6.91-2.396 7.834-5.927l3.266-10.386H28.655zm9.969-38.063c3.998 0 7.25-3.252 7.25-7.25a7.257 7.257 0 00-7.25-7.25 7.258 7.258 0 00-7.25 7.25 7.258 7.258 0 007.25 7.25z"/><path d="M83.937 26.736H29.561c-4.995 0-9.063 4.068-9.063 9.063v39.876c0 4.995 4.068 9.063 9.063 9.063h54.376c4.996 0 9.063-4.068 9.063-9.063V35.799c0-4.995-4.067-9.063-9.063-9.063zm-54.376 7.25h54.376c1.001 0 1.813.812 1.813 1.813v25.735L74.298 48.17c-1.214-1.424-2.973-2.186-4.861-2.229a6.336 6.336 0 00-4.843 2.288L51.13 64.39l-4.386-4.376c-2.48-2.479-6.514-2.479-8.99 0L27.749 70.016V35.799c0-1 .811-1.813 1.812-1.813z"/></g><defs><clipPath id="clip0"><path fill="#fff" transform="translate(6 23)" d="M0 0h87v87H0z"/></clipPath></defs></svg>