<svg width="160" height="162" fill="none" xmlns="http://www.w3.org/2000/svg"><path fill="#D7E6F4" d="M0 0h160v12H0zm0 120h109v12H0zm0 30h160v12H0z"/><path d="M156.766 107h-38.243v-6.523l18.946-20.665c2.734-3.046 4.674-5.585 5.82-7.617 1.172-2.057 1.758-4.114 1.758-6.172 0-2.708-.768-4.895-2.305-6.562-1.51-1.667-3.554-2.5-6.133-2.5-3.073 0-5.455.937-7.148 2.812-1.693 1.875-2.539 4.44-2.539 7.696h-9.492c0-3.464.781-6.576 2.343-9.336 1.589-2.787 3.842-4.948 6.758-6.485 2.943-1.536 6.328-2.304 10.157-2.304 5.52 0 9.869 1.393 13.046 4.18 3.204 2.76 4.805 6.588 4.805 11.484 0 2.838-.807 5.82-2.422 8.945-1.588 3.1-4.206 6.628-7.851 10.586l-13.907 14.883h26.407V107z" fill="#373737"/><path d="M57.8 23c-19.567 0-35.43 15.864-35.43 35.43 0 7.952 2.652 15.27 7.076 21.181L8.77 100.287 17.483 109l20.932-20.932A35.252 35.252 0 0057.8 93.861c19.566 0 35.43-15.864 35.43-35.43C93.23 38.863 77.366 23 57.8 23zm0 61.618c-14.44 0-26.188-11.748-26.188-26.188S43.359 32.243 57.8 32.243c14.44 0 26.187 11.747 26.187 26.187 0 14.44-11.747 26.188-26.187 26.188z" fill="#D7E6F4"/><path d="M50.097 52.268h-9.242v21.567h9.242V52.268zm12.324-12.323h-9.243v33.89h9.243v-33.89zm12.324 6.162h-9.243v27.728h9.243V46.107z" fill="#D7E6F4"/></svg>