<svg width="34" height="34" fill="none" xmlns="http://www.w3.org/2000/svg"><g clip-path="url(#clip0)" fill="#25D366"><path d="M24.802 20.268l-.013.107c-3.116-1.553-3.441-1.76-3.844-1.157-.279.418-1.092 1.366-1.337 1.647-.248.276-.494.297-.915.106-.425-.213-1.79-.659-3.404-2.104-1.258-1.126-2.103-2.507-2.352-2.932-.415-.717.453-.82 1.244-2.315.142-.298.07-.531-.036-.742-.106-.213-.952-2.296-1.306-3.126-.34-.827-.69-.722-.952-.722-.816-.071-1.412-.06-1.938.487-2.286 2.513-1.71 5.106.247 7.863 3.845 5.032 5.893 5.958 9.639 7.245 1.011.321 1.933.276 2.663.17.813-.128 2.503-1.02 2.856-2.02.361-.998.361-1.827.255-2.018-.105-.191-.383-.298-.808-.489z"/><path d="M29.07 4.886C18.177-5.644.15 1.993.143 16.848c0 2.97.778 5.865 2.26 8.422L0 34l8.975-2.34C20.173 37.707 33.995 29.675 34 16.855A16.71 16.71 0 0029.049 4.94l.021-.055zm2.1 11.924c-.01 10.813-11.88 17.566-21.269 12.047l-.51-.303-5.312 1.381 1.424-5.164-.339-.531c-5.842-9.3.87-21.455 11.937-21.455 3.76 0 7.289 1.466 9.946 4.122a13.866 13.866 0 014.122 9.903z"/></g><defs><clipPath id="clip0"><path fill="#fff" d="M0 0h34v34H0z"/></clipPath></defs></svg>