<svg version="1.0" xmlns="http://www.w3.org/2000/svg" width="933.333" height="933.333" viewBox="0 0 700 700"><path d="M93.5 1.1C45.7 8 7.8 46.4 1.1 94.4c-1.5 10.8-1.5 500.4 0 511.2 6.3 45.3 39.8 81.5 85.4 92 7.7 1.8 18.2 1.9 263.5 1.9s255.8-.1 263.5-1.9c42.6-9.8 74.4-41.6 84.2-84.1 1.7-7.7 1.8-19.1 1.8-264v-256l-2.3-8.8C686.6 43 657.9 14.1 615.9 2.8L607.5.5l-254-.1C213.3.3 96.8.6 93.5 1.1zm389.9 163.4c7.9.8 17.2 2.1 20.7 2.8l6.4 1.3.3 35.1.2 35.1-13.7.4c-12.9.3-14.1.5-18.5 3.1-2.6 1.5-6.3 4.6-8.4 7-2 2.3-14.9 25.5-29 52.1-24.4 46.4-25.2 48.1-23.9 50.7.8 1.5 23.7 43.3 51 92.8 27.2 49.6 49.5 90.4 49.5 90.7 0 .2-22.4.4-49.7.4l-49.8-.1-40.5-74.7-40.5-74.7-23.8-.3-23.7-.2v150h-94V168h94v145l23.7-.2 23.8-.3 28-53.2c15.4-29.2 29.3-55.1 30.9-57.5 12.4-18.6 27-30.7 42.7-35.2 12.8-3.7 23.7-4.3 44.3-2.1z"/></svg>